<?xml version="1.0" encoding="utf-8"?>
<svg version="1.1" id="Layer_1" xmlns="http://www.w3.org/2000/svg" xmlns:xlink="http://www.w3.org/1999/xlink" x="0px" y="0px"
	 viewBox="0 0 3840 2160" style="enable-background:new 0 0 3840 2160;" xml:space="preserve">
<title>Logo</title>
<style type="text/css">
	.st0{fill:#58595B;}
	.st1{clip-path:url(#SVGID_00000085234462024677994260000001118856939496969345_);fill:#0FA6E3;}
	.st2{clip-path:url(#SVGID_00000112629597166759683140000014857115238028188077_);fill:#F00091;}
	.st3{clip-path:url(#SVGID_00000168815191803157248590000008476130493907716264_);fill:#FFCB0F;}
	.st4{clip-path:url(#SVGID_00000055708092261794922560000008107887224985561506_);fill:#9CC22B;}
	
		.st5{clip-path:url(#SVGID_00000083781123205118514870000015531024791408791716_);fill-rule:evenodd;clip-rule:evenodd;fill:#CD0A69;}
	
		.st6{clip-path:url(#SVGID_00000034082361462286532750000017218101005342367362_);fill-rule:evenodd;clip-rule:evenodd;fill:#005FA5;}
	
		.st7{clip-path:url(#SVGID_00000066498111967733928810000005722789936641289110_);fill-rule:evenodd;clip-rule:evenodd;fill:#649B32;}
	
		.st8{clip-path:url(#SVGID_00000109719891745593836760000001541598197635988111_);fill-rule:evenodd;clip-rule:evenodd;fill:#FF9100;}
</style>
<g>
	<path class="st0" d="M1359.51,1062.44c0,103.46-77.6,182.64-183.17,182.64s-183.16-79.18-183.16-182.64
		c0-103.46,77.59-182.64,183.16-182.64S1359.51,958.98,1359.51,1062.44z M1305.67,1062.44c0-78.12-53.84-133.02-129.33-133.02
		s-129.32,54.9-129.32,133.02c0,78.12,53.84,133.02,129.32,133.02S1305.67,1140.56,1305.67,1062.44z"/>
	<path class="st0" d="M1432.34,1015.99v127.21c0,13.2,0.53,28.5,9.5,40.12c6.86,8.97,19,15.31,33.78,15.31
		c14.78,0,26.92-6.34,33.78-15.31c8.97-11.61,9.5-26.92,9.5-40.12v-127.21h51.73v128.8c0,28.51-3.17,52.26-23.75,72.84
		c-20.06,20.06-47.51,27.45-72.32,27.45c-22.7,0-50.15-6.86-70.21-27.45c-20.58-20.59-23.75-44.34-23.75-72.84v-128.8H1432.34z"/>
	<path class="st0" d="M1663.01,1063.5v174.72h-51.73V1063.5h-21.64v-47.51h21.64V934.7h51.73v81.29h39.59v47.51H1663.01z"/>
	<path class="st0" d="M1813.44,1062.44c-7.39-16.89-22.17-24.28-37.48-24.28c-24.28,0-36.42,18.47-36.42,34.31
		c0,21.11,16.89,27.97,38.01,36.42c21.64,8.45,41.7,14.25,55.42,31.67c8.97,11.08,11.09,22.7,11.09,34.84
		c0,49.09-36.95,68.62-70.21,68.62c-35.89,0-65.45-21.11-74.43-57.01l20.59-6.34c7.39,28.51,30.09,43.29,53.84,43.29
		c27.45,0,48.04-19.53,48.04-47.51c0-24.28-15.31-33.26-48.04-46.45c-21.64-8.97-37.47-15.83-46.98-28.5
		c-4.75-6.34-9.5-15.31-9.5-27.98c0-32.73,24.81-55.42,57.54-55.42c25.34,0,46.45,11.61,56.48,34.84L1813.44,1062.44z"/>
	<path class="st0" d="M1894.2,1042.91v195.31h-21.11v-195.31h-23.75v-20.06h23.75v-77.07h21.11v77.07h37.48v20.06H1894.2z"/>
	<path class="st0" d="M2117.48,1022.85h21.12v215.36h-21.12v-38.53c-21.64,33.26-55.95,44.34-83.93,44.34
		c-56.48,0-105.04-42.76-105.04-113.49c0-66.51,42.23-112.43,105.04-112.43c33.78,0,63.34,13.2,83.93,42.23V1022.85z
		 M1950.68,1128.95c0,48.56,30.09,95.02,84.46,95.02c53.84,0,83.4-45.4,83.4-95.02c0-63.87-46.98-90.79-83.93-90.79
		C1991.85,1038.16,1950.68,1070.36,1950.68,1128.95z"/>
	<path class="st0" d="M2167.09,1022.85h21.11v33.78c10.03-17.95,29.56-38.53,65.98-38.53c38.53,0,54.9,22.7,59.65,30.09
		c9.5,15.31,10.56,35.36,10.56,54.37v135.66h-21.11v-135.66c0-14.78-0.53-31.14-8.45-43.28c-4.75-7.92-16.36-21.11-42.23-21.11
		c-29.56,0-44.87,15.83-52.78,30.09c-9.5,16.89-11.61,36.95-11.61,58.06v111.91h-21.11V1022.85z"/>
	<path class="st0" d="M2533.4,853.41h21.11v384.81h-21.11v-38.53c-21.64,33.26-55.96,44.34-83.4,44.34
		c-54.37,0-105.57-39.06-105.57-114.54c0-78.65,53.31-111.38,105.57-111.38c39.06,0,66.51,17.95,83.4,42.23V853.41z M2366.6,1128.95
		c0,62.82,41.17,95.02,84.46,95.02c42.76,0,83.4-32.2,83.4-95.02c0-50.15-31.15-90.79-84.46-90.79
		C2405.66,1038.16,2366.6,1068.77,2366.6,1128.95z"/>
	<path class="st0" d="M2579.84,951.06c0-11.61,8.45-19.53,19-19.53c10.56,0,19,7.92,19,19.53c0,11.61-8.45,19.53-19,19.53
		C2588.29,970.59,2579.84,962.67,2579.84,951.06z M2609.4,1022.85v215.36h-21.11v-215.36H2609.4z"/>
	<path class="st0" d="M2643.18,1022.85h21.11v33.78c10.03-17.95,29.56-38.53,65.98-38.53c38.53,0,54.9,22.7,59.65,30.09
		c9.5,15.31,10.56,35.36,10.56,54.37v135.66h-21.11v-135.66c0-14.78-0.53-31.14-8.45-43.28c-4.75-7.92-16.36-21.11-42.23-21.11
		c-29.56,0-44.87,15.83-52.78,30.09c-9.5,16.89-11.61,36.95-11.61,58.06v111.91h-21.11V1022.85z"/>
	<path class="st0" d="M3032.72,1022.85v209.03c0,81.29-40.65,127.74-108.21,127.74c-55.95,0-102.93-32.73-105.57-92.38h22.17
		c3.69,44.87,37.47,72.32,83.4,72.32c84.99,0,87.1-85.51,87.1-107.68v-30.62c-21.64,30.09-54.37,42.76-84.98,42.76
		c-52.79,0-106.1-38.53-106.1-113.49c0-62.29,41.17-112.43,108.74-112.43c35.37,0,63.87,15.84,82.35,42.23v-37.48H3032.72z
		 M2842.7,1131.59c0,51.73,32.73,92.37,83.4,92.37c53.31,0,86.57-41.7,86.57-94.49c0-50.15-32.73-91.32-85.51-91.32
		C2873.84,1038.16,2842.7,1081.97,2842.7,1131.59z"/>
	<path class="st0" d="M3119.28,886.14v301.4h103.46v50.67h-157.3V886.14H3119.28z"/>
	<path class="st0" d="M3263.38,890.89c19,0,33.26,14.25,33.26,33.26c0,19-14.25,33.25-33.26,33.25c-19,0-33.26-14.25-33.26-33.25
		C3230.12,905.14,3244.37,890.89,3263.38,890.89z M3289.24,1015.99v222.23h-51.73v-222.23H3289.24z"/>
	<path class="st0" d="M3385.3,1063.5v174.72h-51.73V1063.5h-22.17v-47.51h22.17v-77.07c0-34.31,8.97-55.95,21.64-69.68
		c9.5-10.03,25.86-21.64,52.79-21.64c11.08,0,22.17,1.59,33.26,6.34v51.2c-10.56-6.33-17.42-7.92-24.81-7.92
		c-6.34,0-15.84,1.05-22.7,8.45c-2.64,2.64-8.45,10.56-8.45,26.39v83.93h55.96v47.51H3385.3z"/>
	<path class="st0" d="M3643.42,1187.54c-9.5,16.89-23.23,31.67-37.48,40.65c-17.95,11.61-41.7,16.89-65.46,16.89
		c-29.56,0-53.84-7.39-74.95-28.51c-21.11-21.11-32.73-51.73-32.73-84.98c0-34.31,12.14-67.57,35.36-91.32
		c18.48-18.47,42.76-30.09,74.43-30.09c35.37,0,58.06,15.31,71.26,29.03c28.5,29.56,31.14,70.73,31.14,93.96v6.34h-159.41
		c1.05,15.83,7.92,33.78,19,44.87c12.14,12.14,26.92,14.25,39.59,14.25c14.25,0,24.81-3.17,35.37-11.09
		c8.97-6.86,15.84-15.84,20.59-24.28L3643.42,1187.54z M3592.22,1097.28c-2.11-12.14-7.92-22.7-15.84-30.09
		c-6.86-6.33-17.95-12.67-34.84-12.67c-17.95,0-29.56,7.39-36.42,14.25c-7.39,6.86-13.2,17.42-15.84,28.51H3592.22z"/>
</g>
<g>
	<defs>
		<path id="SVGID_1_" d="M802.8,1034.67c4.72-20.84,19.33-37.41,44.24-37.41s45.1,20.19,45.1,45.1
			c0,198.76-274.72,311-416.53,108.46C645.36,1248.34,783,1129.98,802.8,1034.67z"/>
	</defs>
	<use xlink:href="#SVGID_1_"  style="overflow:visible;fill:#005FA5;"/>
	<clipPath id="SVGID_00000118386455588061574440000007891940328833326239_">
		<use xlink:href="#SVGID_1_"  style="overflow:visible;"/>
	</clipPath>
	<path style="clip-path:url(#SVGID_00000118386455588061574440000007891940328833326239_);fill:#0FA6E3;" d="M802.1,1046.12
		c-0.97-21.34,8.72-41.2,32.73-47.81s48.84,7.51,55.45,31.53c52.7,191.64-182.42,372.71-372.86,215.03
		C706.95,1293.89,808.29,1143.27,802.1,1046.12z"/>
</g>
<g>
	<defs>
		<path id="SVGID_00000035519879220051790090000018162702326645980327_" d="M535.51,823.31c-20.84-4.72-37.41-19.33-37.41-44.24
			s20.19-45.1,45.1-45.1c198.76,0,311,274.72,108.46,416.53C749.18,980.76,630.82,843.11,535.51,823.31z"/>
	</defs>
	<use xlink:href="#SVGID_00000035519879220051790090000018162702326645980327_"  style="overflow:visible;fill:#CD0A69;"/>
	<clipPath id="SVGID_00000111893959633300736020000001868340683018699702_">
		<use xlink:href="#SVGID_00000035519879220051790090000018162702326645980327_"  style="overflow:visible;"/>
	</clipPath>
	<path style="clip-path:url(#SVGID_00000111893959633300736020000001868340683018699702_);fill:#F00091;" d="M546.97,824.01
		c-21.34,0.97-41.2-8.72-47.8-32.73s7.51-48.84,31.53-55.45c191.64-52.7,372.71,182.42,215.03,372.86
		C794.73,919.16,644.11,817.82,546.97,824.01z"/>
</g>
<g>
	<defs>
		<path id="SVGID_00000021117700812537620540000009944189920628459662_" d="M318.34,1093.82c-4.72,20.84-19.33,37.41-44.24,37.41
			s-45.1-20.19-45.1-45.1c0-198.76,274.72-311,416.53-108.46C475.78,880.15,338.14,998.51,318.34,1093.82z"/>
	</defs>
	<use xlink:href="#SVGID_00000021117700812537620540000009944189920628459662_"  style="overflow:visible;fill:#FF9100;"/>
	<clipPath id="SVGID_00000058578019224777976190000005965009652040733836_">
		<use xlink:href="#SVGID_00000021117700812537620540000009944189920628459662_"  style="overflow:visible;"/>
	</clipPath>
	<path style="clip-path:url(#SVGID_00000058578019224777976190000005965009652040733836_);fill:#FFCB0F;" d="M319.04,1082.36
		c0.97,21.34-8.72,41.2-32.73,47.81c-24.02,6.6-48.84-7.51-55.45-31.53C178.15,907,413.28,725.93,603.71,883.61
		C414.19,834.6,312.85,985.22,319.04,1082.36z"/>
</g>
<g>
	<defs>
		<path id="SVGID_00000159460611778552380480000005290263865506102444_" d="M586.64,1306.38c20.84,4.72,37.41,19.33,37.41,44.24
			c0,24.91-20.19,45.1-45.1,45.1c-198.76,0-311-274.72-108.46-416.53C372.97,1148.94,491.33,1286.59,586.64,1306.38z"/>
	</defs>
	<use xlink:href="#SVGID_00000159460611778552380480000005290263865506102444_"  style="overflow:visible;fill:#649B32;"/>
	<clipPath id="SVGID_00000136409063913276697190000009037935612959334826_">
		<use xlink:href="#SVGID_00000159460611778552380480000005290263865506102444_"  style="overflow:visible;"/>
	</clipPath>
	<path style="clip-path:url(#SVGID_00000136409063913276697190000009037935612959334826_);fill:#9CC22B;" d="M575.19,1305.69
		c21.34-0.97,41.2,8.72,47.8,32.73s-7.51,48.84-31.53,55.45c-191.64,52.7-372.71-182.42-215.03-372.86
		C327.42,1210.53,478.04,1311.87,575.19,1305.69z"/>
</g>
<g>
	<defs>
		<circle id="SVGID_00000089572998360217025120000005403668134607622796_" cx="820.27" cy="806.16" r="56.52"/>
	</defs>
	
		<use xlink:href="#SVGID_00000089572998360217025120000005403668134607622796_"  style="overflow:visible;fill-rule:evenodd;clip-rule:evenodd;fill:#F00091;"/>
	<clipPath id="SVGID_00000068650472954655283480000017548846854151700356_">
		<use xlink:href="#SVGID_00000089572998360217025120000005403668134607622796_"  style="overflow:visible;"/>
	</clipPath>
	
		<circle style="clip-path:url(#SVGID_00000068650472954655283480000017548846854151700356_);fill-rule:evenodd;clip-rule:evenodd;fill:#CD0A69;" cx="807.55" cy="818.88" r="56.52"/>
</g>
<g>
	<defs>
		<circle id="SVGID_00000074436075268106588090000012798401051255096972_" cx="820.27" cy="1324.1" r="56.52"/>
	</defs>
	
		<use xlink:href="#SVGID_00000074436075268106588090000012798401051255096972_"  style="overflow:visible;fill-rule:evenodd;clip-rule:evenodd;fill:#00A0E1;"/>
	<clipPath id="SVGID_00000166645929984024530920000018195941631820226973_">
		<use xlink:href="#SVGID_00000074436075268106588090000012798401051255096972_"  style="overflow:visible;"/>
	</clipPath>
	
		<circle style="clip-path:url(#SVGID_00000166645929984024530920000018195941631820226973_);fill-rule:evenodd;clip-rule:evenodd;fill:#005FA5;" cx="807.55" cy="1311.38" r="56.52"/>
</g>
<g>
	<defs>
		<circle id="SVGID_00000115509352587074977850000001545811263942090883_" cx="301.76" cy="1324.1" r="56.52"/>
	</defs>
	
		<use xlink:href="#SVGID_00000115509352587074977850000001545811263942090883_"  style="overflow:visible;fill-rule:evenodd;clip-rule:evenodd;fill:#96BE1E;"/>
	<clipPath id="SVGID_00000057836965782105445920000013841229723539398543_">
		<use xlink:href="#SVGID_00000115509352587074977850000001545811263942090883_"  style="overflow:visible;"/>
	</clipPath>
	
		<circle style="clip-path:url(#SVGID_00000057836965782105445920000013841229723539398543_);fill-rule:evenodd;clip-rule:evenodd;fill:#649B32;" cx="314.47" cy="1311.38" r="56.52"/>
</g>
<g>
	<defs>
		<circle id="SVGID_00000064330557769044732810000013092836068720380570_" cx="301.76" cy="806.16" r="56.52"/>
	</defs>
	
		<use xlink:href="#SVGID_00000064330557769044732810000013092836068720380570_"  style="overflow:visible;fill-rule:evenodd;clip-rule:evenodd;fill:#FFC800;"/>
	<clipPath id="SVGID_00000150080787428068438800000001946963247777235585_">
		<use xlink:href="#SVGID_00000064330557769044732810000013092836068720380570_"  style="overflow:visible;"/>
	</clipPath>
	
		<circle style="clip-path:url(#SVGID_00000150080787428068438800000001946963247777235585_);fill-rule:evenodd;clip-rule:evenodd;fill:#FF9100;" cx="314.47" cy="818.88" r="56.52"/>
</g>
</svg>
